<svg xmlns="http://www.w3.org/2000/svg" width="249.336" height="49.044" viewBox="0 0 249.336 49.044">
  <g id="logo_pinarello" transform="translate(0 -0.28)">
    <g id="logo">
      <path id="Fill_1" data-name="Fill 1" d="M30.653,12.536l-.052.024c-.885.4-1.519.669-2.952,1.186A17.117,17.117,0,0,0,22.4,17.023a15.232,15.232,0,0,0-1.149,1.434l-.06.087c-3.46,4.948-4.38,11.917-4.632,16.075l-.023.493c-.012.787-.017.934-.015,1.037,0-.382,0-.488.015-1.037.067-3.734-.361-13.071-4.988-13.435,1.442-.152,3.1-.036,3.134-.707.038-.643-1.278-1.339-3.361-1.552-.219-.021-1.243-.143-1.455-.131,1.862-.121,4.252-.17,4.244-.784s-1.4-1.4-3.716-1.783c-.584-.039-1.489-.129-1.962-.129.289-.016,1.243-.03,1.582-.03.182,0,.288-.008.6-.014,2.2-.157,3.5-.317,3.65-1.16.277-1.573-7.524-2.252-8.729-2.4.534,0,6.178.277,6.391.277,8.735,0,15.818-2.393,15.818-5.447S16.331-.023,0,2.374C4-.165,14.73-.05,16.075.032c10.914.663,19.258,3.9,19.258,7.786,0,1.761-1.756,3.381-4.623,4.7Z" transform="translate(87.876 0.28)" fill="#9d9d9d"/>
      <path id="Fill_7" data-name="Fill 7" d="M229.878,21.947h-.018c-6.983,0-11.41-1.259-13.534-3.85-1.46-1.78-1.862-4.182-1.23-7.344a12.115,12.115,0,0,1,1.994-4.743,11.7,11.7,0,0,1,3.832-3.356C224.106.868,228.465,0,234.246,0h.009c7,0,11.438,1.269,13.578,3.878,1.432,1.746,1.836,4.062,1.233,7.081a11.62,11.62,0,0,1-5.809,8.292C240.094,21.066,235.717,21.947,229.878,21.947ZM219.936,3.96h0l6.4,1.4a8.108,8.108,0,0,0-3.406,5.423c-.481,2.408-.23,4.17.767,5.387,1.179,1.438,3.436,2.137,6.9,2.137,6.288,0,9.682-2.334,10.682-7.347.452-2.276.192-3.967-.794-5.169-1.2-1.466-3.479-2.179-6.956-2.179a17.942,17.942,0,0,0-3.731.358Zm-6.9,17.563h-9.075c-4.774,0-8.107-.153-10.822-2.2-2.256-1.692-2.38-3.535-1.82-6.345L193.825.424H201L198.688,12c-.06.292-.113.555-.167.82-.365,1.845-.518,3.023.426,3.82,1.331,1.147,3.409,1.379,6.33,1.381l8.456,0-.7,3.5Zm-141.722-.01-8.319,0L51.5,5.557,49.247,18.248l-7.959,3.263L45.5.413h9.074L65.51,15.575l2.3-12.586L75.523.413,71.734,19.4,88.523.413h7.6l9.861,20.147L110.008.413h17.672c5.283,0,8.537.835,9.945,2.553a4.322,4.322,0,0,1,.711,3.791c-.648,3.239-3.515,5.348-8.075,5.937l6.746,8.816h-8.078l-5.845-8.287h-8.459l-1.652,8.288h-14.5l-2.131-5.025H81.514L77.47,21.511H71.314ZM91.2,4.614l-6.6,8.11H94.761Zm18.619-.455h0l6.272,1.724-.719,3.6h8.788c4.03,0,6.451-.437,6.9-2.67a1.767,1.767,0,0,0-.274-1.544c-.749-.913-2.767-1.1-5.566-1.1h-7.477Zm79.358,17.352H180.1c-4.773,0-8.1-.153-10.815-2.2-2.262-1.695-2.386-3.537-1.824-6.345l2.5-12.548h7.174l-2.309,11.578c-.06.294-.113.557-.167.821-.367,1.843-.521,3.02.427,3.82,1.333,1.15,3.41,1.381,6.329,1.381h8.456l-.7,3.5Zm-149.741,0H31.924L36.137.411h7.505l-.706,3.541L35.9,3.944l6.674,1.833L39.433,21.51Zm-32.26,0H0L4.209.413H19.846c5.175,0,8,.306,9.759,1.056,2.832,1.22,4.056,3.233,3.54,5.819-.5,2.524-2.15,4.321-5.037,5.5-3.119,1.25-6.432,1.348-10.771,1.35H8.645L7.172,21.51ZM4.019,4.163h0l6.271,1.722-.9,4.515h8.742a12.643,12.643,0,0,0,4.979-.764,3.2,3.2,0,0,0,2.056-2.351,2.086,2.086,0,0,0-.326-1.826c-.74-.9-2.5-1.288-5.888-1.288H11.942ZM163.745,21.507H151.628c-3.775,0-7.153-.139-10.269-1.85a7.042,7.042,0,0,1-3.259-3.373,8.332,8.332,0,0,1-.306-4.944,11.723,11.723,0,0,1,5.561-8.262c2.992-1.795,7.138-2.667,12.673-2.667h11.927l-.733,3.671H155.44c-5.15,0-8.112,1.606-9.057,4.909h19.86l-.734,3.672H145.6a4.032,4.032,0,0,0,.564,3.462c.982,1.183,2.993,1.711,6.518,1.711h11.789l-.731,3.67Z" transform="translate(0 27.377)"/>
    </g>
  </g>
</svg>
